<svg width="24" height="24" viewBox="0 0 24 24" fill="none" xmlns="http://www.w3.org/2000/svg">
<g id="done_FILL0_wght400_GRAD0_opsz48 (1) 1">
<path id="Vector" d="M9.45002 15.7L18.525 6.62502C18.6761 6.47502 18.8556 6.40002 19.0633 6.40002C19.2711 6.40002 19.45 6.47547 19.6 6.62635C19.75 6.77722 19.825 6.95638 19.825 7.16385C19.825 7.3713 19.75 7.55002 19.6 7.70002L9.97502 17.325C9.82502 17.475 9.65002 17.55 9.45002 17.55C9.25002 17.55 9.07502 17.475 8.92502 17.325L4.37502 12.775C4.22502 12.6239 4.15419 12.4445 4.16252 12.2367C4.17086 12.0289 4.25046 11.85 4.40135 11.7C4.55221 11.55 4.73138 11.475 4.93885 11.475C5.1463 11.475 5.32502 11.55 5.47502 11.7L9.45002 15.7Z" fill="#333333"/>
</g>
</svg>
