<svg width="24" height="24" viewBox="0 0 24 24" fill="none" xmlns="http://www.w3.org/2000/svg">
<g id="insert_chart_FILL0_wght400_GRAD0_opsz48 1">
<path id="Vector" d="M7.85437 17.075C8.06812 17.075 8.24583 17.0031 8.3875 16.8594C8.52917 16.7156 8.6 16.5375 8.6 16.325V10.95C8.6 10.7375 8.52771 10.5594 8.38313 10.4156C8.23853 10.2719 8.05936 10.2 7.84563 10.2C7.63188 10.2 7.45417 10.2719 7.3125 10.4156C7.17083 10.5594 7.1 10.7375 7.1 10.95V16.325C7.1 16.5375 7.17229 16.7156 7.31687 16.8594C7.46147 17.0031 7.64064 17.075 7.85437 17.075ZM12.0044 17.075C12.2181 17.075 12.3958 17.0031 12.5375 16.8594C12.6792 16.7156 12.75 16.5375 12.75 16.325V7.675C12.75 7.4625 12.6777 7.28438 12.5331 7.14062C12.3885 6.99688 12.2094 6.925 11.9956 6.925C11.7819 6.925 11.6042 6.99688 11.4625 7.14062C11.3208 7.28438 11.25 7.4625 11.25 7.675V16.325C11.25 16.5375 11.3223 16.7156 11.4669 16.8594C11.6115 17.0031 11.7906 17.075 12.0044 17.075ZM16.1544 17.075C16.3681 17.075 16.5458 17.0031 16.6875 16.8594C16.8292 16.7156 16.9 16.5375 16.9 16.325V14.125C16.9 13.9125 16.8277 13.7344 16.6831 13.5906C16.5385 13.4469 16.3594 13.375 16.1456 13.375C15.9319 13.375 15.7542 13.4469 15.6125 13.5906C15.4708 13.7344 15.4 13.9125 15.4 14.125V16.325C15.4 16.5375 15.4723 16.7156 15.6169 16.8594C15.7615 17.0031 15.9406 17.075 16.1544 17.075ZM4.5 21C4.1 21 3.75 20.85 3.45 20.55C3.15 20.25 3 19.9 3 19.5V4.5C3 4.1 3.15 3.75 3.45 3.45C3.75 3.15 4.1 3 4.5 3H19.5C19.9 3 20.25 3.15 20.55 3.45C20.85 3.75 21 4.1 21 4.5V19.5C21 19.9 20.85 20.25 20.55 20.55C20.25 20.85 19.9 21 19.5 21H4.5ZM4.5 19.5H19.5V4.5H4.5V19.5Z" fill="#333333"/>
</g>
</svg>
